<svg width="51" height="39" viewBox="0 0 51 39" fill="none" xmlns="http://www.w3.org/2000/svg">
<path d="M40.9884 22.9494C40.9848 23.6518 40.4638 23.8331 39.8283 23.8278C37.9289 23.8155 36.0295 23.8137 34.1284 23.8278C33.3081 23.8349 32.9718 23.4423 32.9806 22.6431C32.9965 20.9198 32.9842 19.1947 32.9842 17.4695C32.9842 15.7444 32.9912 14.0791 32.9806 12.3822C32.9771 11.7661 33.1074 11.2151 33.8309 11.1975C34.6177 11.1781 34.7427 11.752 34.741 12.4051C34.7304 15.3571 34.7586 18.311 34.7198 21.263C34.711 21.9232 34.8835 22.1062 35.5437 22.0816C36.9731 22.0288 38.406 22.0745 39.8389 22.0622C40.4761 22.0552 40.9936 22.2435 40.9884 22.9494Z" fill="#98ADCB"/>
<path d="M39.234 5.43594C38.2306 5.11556 37.8627 4.74237 37.9278 3.66329C38.0387 1.79383 37.9578 1.77622 39.7762 1.76038C40.3993 1.7551 40.9556 1.62308 40.9679 0.915425C40.982 0.156725 40.4081 -0.00346439 39.748 5.62554e-05C37.8469 0.0123785 35.9457 0.00533723 34.0446 0.00533723C32.1434 0.00533723 30.0662 0.0035769 28.0788 0.00709755C27.4979 0.00709755 27.0913 0.281708 27.0807 0.878458C27.0719 1.42064 27.4205 1.68997 27.975 1.75862C28.6703 1.84488 29.6262 1.38191 30.0029 2.00331C30.3285 2.54197 30.0469 3.42741 30.105 4.15442C30.1595 4.81807 29.9395 5.08211 29.2635 5.28103C21.1696 7.67331 16.2283 15.5138 17.3585 24.0954C18.4094 32.082 25.5052 38.3505 33.6943 38.5265C42.0188 38.7078 49.2643 32.6347 50.655 24.3101C52.028 16.0947 47.1343 7.95496 39.234 5.43594ZM33.3352 1.75334C34.0956 1.75334 34.8561 1.77622 35.6148 1.74454C36.0795 1.72517 36.245 1.89417 36.2098 2.34833C36.1517 3.09999 36.5161 4.06641 36.0654 4.54698C35.6429 4.99762 34.6924 4.46952 33.9706 4.58922C33.7365 4.58922 33.5024 4.5769 33.27 4.58922C32.3241 4.64203 31.8512 4.17965 31.8512 3.20209C31.8512 2.22452 32.3459 1.7416 33.3352 1.75334ZM33.9724 36.7803C25.6197 36.7416 18.9005 29.9045 18.9287 21.4743C18.9568 13.1039 25.727 6.31082 34.034 6.31786C42.3832 6.3249 49.1323 13.1532 49.12 21.5799C49.1077 29.9925 42.3075 36.819 33.9724 36.7803Z" fill="#98ADCB"/>
<path d="M7.96629 27.778C9.71958 27.778 11.4746 27.7833 13.2279 27.7745C13.8792 27.771 14.4549 27.9083 14.4355 28.6916C14.4161 29.4187 13.8546 29.5419 13.2437 29.5401C9.76535 29.5366 6.28695 29.5348 2.80854 29.5401C2.18363 29.5401 1.64497 29.3747 1.63969 28.6617C1.63441 27.9523 2.15898 27.7692 2.7927 27.7728C4.51782 27.7833 6.24118 27.7763 7.96629 27.7763V27.778Z" fill="#98ADCB"/>
<path d="M12.2785 8.21017C10.5235 8.21017 8.77017 8.20137 7.01513 8.21545C6.37613 8.22073 5.86564 8.0359 5.86916 7.32649C5.87268 6.61356 6.39198 6.44809 7.02745 6.44985C10.5076 6.46041 13.9878 6.46041 17.4662 6.44985C18.0929 6.44809 18.6386 6.58715 18.6579 7.2948C18.679 8.05878 18.121 8.22249 17.4539 8.21721C15.7287 8.20137 14.0036 8.21193 12.2785 8.21193V8.21017Z" fill="#98ADCB"/>
<path d="M12.2576 36.6395C10.5025 36.6395 8.74926 36.6307 6.99422 36.6447C6.34818 36.65 5.85705 36.4476 5.86937 35.7364C5.88169 35.0798 6.35346 34.8827 6.96253 34.8844C10.5008 34.8932 14.039 34.8932 17.5773 34.8844C18.1916 34.8844 18.6564 35.1009 18.6616 35.7487C18.6669 36.4546 18.1652 36.65 17.5227 36.6447C15.7677 36.6307 14.0144 36.6395 12.2593 36.6395H12.2576Z" fill="#98ADCB"/>
<path d="M6.29708 22.4301C4.60189 22.4301 2.90493 22.4213 1.20974 22.4336C0.553139 22.4389 -0.0172063 22.2963 0.000396982 21.52C0.0162399 20.8036 0.561941 20.6645 1.18334 20.6663C4.6635 20.6751 8.1419 20.6733 11.6221 20.6663C12.2452 20.6663 12.7768 20.8106 12.7856 21.5359C12.7944 22.2594 12.2787 22.4336 11.6485 22.4301C9.86526 22.4213 8.08205 22.4266 6.29708 22.4266V22.4301Z" fill="#98ADCB"/>
<path d="M8.04315 13.5687C9.76651 13.5687 11.4899 13.5757 13.2132 13.5652C13.8628 13.5616 14.4455 13.6866 14.4331 14.4682C14.4208 15.1899 13.8628 15.322 13.2467 15.3202C9.77003 15.3149 6.29515 15.3149 2.81851 15.3202C2.19536 15.3202 1.64789 15.1688 1.64261 14.4559C1.63733 13.6796 2.22528 13.5581 2.87308 13.5634C4.59644 13.5757 6.3198 13.5669 8.04315 13.5669V13.5687Z" fill="#98ADCB"/>
<path d="M40.9884 22.9494C40.9848 23.6518 40.4638 23.8331 39.8283 23.8278C37.9289 23.8155 36.0295 23.8137 34.1284 23.8278C33.3081 23.8349 32.9718 23.4423 32.9806 22.6431C32.9965 20.9198 32.9842 19.1947 32.9842 17.4695C32.9842 15.7444 32.9912 14.0791 32.9806 12.3822C32.9771 11.7661 33.1074 11.2151 33.8309 11.1975C34.6177 11.1781 34.7427 11.752 34.741 12.4051C34.7304 15.3571 34.7586 18.311 34.7198 21.263C34.711 21.9232 34.8835 22.1062 35.5437 22.0816C36.9731 22.0288 38.406 22.0745 39.8389 22.0622C40.4761 22.0552 40.9936 22.2435 40.9884 22.9494Z" fill="#98ADCB"/>
<path d="M40.9884 22.9494C40.9848 23.6518 40.4638 23.8331 39.8283 23.8278C37.9289 23.8155 36.0295 23.8137 34.1284 23.8278C33.3081 23.8349 32.9718 23.4423 32.9806 22.6431C32.9965 20.9198 32.9842 19.1947 32.9842 17.4695C32.9842 15.7444 32.9912 14.0791 32.9806 12.3822C32.9771 11.7661 33.1074 11.2151 33.8309 11.1975C34.6177 11.1781 34.7427 11.752 34.741 12.4051C34.7304 15.3571 34.7586 18.311 34.7198 21.263C34.711 21.9232 34.8835 22.1062 35.5437 22.0816C36.9731 22.0288 38.406 22.0745 39.8389 22.0622C40.4761 22.0552 40.9936 22.2435 40.9884 22.9494Z" fill="#98ADCB"/>
</svg>
