<svg width="48" height="52" viewBox="0 0 48 52" fill="none" xmlns="http://www.w3.org/2000/svg">
<g clip-path="url(#clip0_416_537)">
<path d="M22.1903 1.55525C22.1947 0.894944 21.8941 0.655828 21.2577 0.660215C18.8924 0.675571 16.5271 0.675571 14.1618 0.660215C13.5189 0.658022 13.2468 0.912493 13.2534 1.57061C13.2731 3.93325 13.2775 6.29808 13.2512 8.66292C13.2424 9.38246 13.5408 9.62596 14.2298 9.60841C15.3927 9.5755 16.5578 9.59964 17.7229 9.59964C18.888 9.59964 20.0531 9.5755 21.2161 9.60841C21.9204 9.62815 22.1991 9.34736 22.1947 8.64756C22.1749 6.28273 22.1771 3.92009 22.1903 1.55525ZM21.1436 8.51155H14.3285V1.75708H21.1436V8.51155Z" fill="#98ADCB"/>
<path d="M46.2803 42.3849C43.9896 42.4288 41.6967 42.4222 39.406 42.3893C38.6358 42.3783 38.3879 42.6744 38.3988 43.4181C38.4273 45.7084 38.4273 47.9986 38.3988 50.2889C38.3879 51.0172 38.6073 51.355 39.3862 51.344C41.7142 51.3155 44.0423 51.3199 46.3703 51.3418C47.0856 51.3506 47.3445 51.0501 47.3314 50.3634C47.3072 49.2008 47.3248 48.0359 47.3248 46.8732C47.3248 45.7106 47.2984 44.6181 47.3335 43.4927C47.3599 42.7227 47.1229 42.3695 46.2803 42.3849ZM46.2408 50.2472H39.4411V43.4817H46.2408V50.2472Z" fill="#98ADCB"/>
<path d="M47.3218 15.3999C47.3218 14.7878 47.0212 14.5838 46.4376 14.5882C44.0372 14.6036 41.6367 14.6036 39.2385 14.5904C38.6263 14.586 38.3959 14.8558 38.4047 15.446C38.4222 16.6459 38.4091 17.8459 38.4091 19.0458C38.4091 20.2458 38.4244 21.4436 38.4047 22.6436C38.3937 23.2315 38.6197 23.521 39.2275 23.5188C41.663 23.5123 44.1008 23.5408 46.5363 23.4794C46.804 23.4728 47.2802 22.9814 47.2867 22.705C47.346 20.2721 47.3153 17.8349 47.3218 15.3999ZM46.2423 22.4308H39.4228V15.6544H46.2423V22.4308Z" fill="#98ADCB"/>
<path d="M22.1881 29.352C22.1903 28.7707 21.9533 28.4767 21.3477 28.4789C18.9472 28.4877 16.5446 28.4899 14.1442 28.4767C13.4925 28.4745 13.2468 28.7553 13.2533 29.4046C13.2731 31.7673 13.2797 34.1299 13.2511 36.4948C13.2424 37.2384 13.5847 37.4293 14.2517 37.4139C15.4146 37.3854 16.5797 37.4051 17.7448 37.4051C18.9099 37.4051 20.0729 37.3876 21.2358 37.4117C21.8589 37.4271 22.1946 37.2275 22.1903 36.5518C22.1771 34.1519 22.1815 31.7519 22.1881 29.352ZM21.1173 36.339H14.3197V29.556H21.1173V36.339Z" fill="#98ADCB"/>
<path d="M30.2143 -0.000107782C27.4299 0.041573 25.1524 2.34279 25.1436 5.12443C25.1348 7.95653 27.4541 10.2643 30.2999 10.2599C33.1546 10.2534 35.4277 7.95433 35.408 5.09372C35.3882 2.25285 33.0514 -0.0395948 30.2143 -0.000107782ZM30.2407 9.26837C27.9236 9.23985 26.1178 7.36641 26.1617 5.03668C26.2034 2.76837 28.0421 0.995842 30.3306 1.01778C32.6016 1.03972 34.4228 2.86489 34.4294 5.12443C34.436 7.41906 32.5402 9.2947 30.2407 9.26837Z" fill="#98ADCB"/>
<path d="M17.7445 41.7399C14.8833 41.7268 12.5969 44.0017 12.5947 46.8601C12.5925 49.7097 14.8986 52.0131 17.7401 52C20.5201 51.9846 22.8152 49.7075 22.8569 46.9193C22.8964 44.1004 20.5816 41.7531 17.7445 41.7399ZM17.7357 50.9821C15.4186 50.9887 13.5514 49.1262 13.5733 46.8272C13.5931 44.5698 15.4318 42.7425 17.694 42.7315C20.0089 42.7183 21.8586 44.5742 21.8432 46.8952C21.8257 49.1701 20.0133 50.9755 17.7357 50.9821Z" fill="#98ADCB"/>
<path d="M30.2055 41.7399C27.4123 41.775 25.1457 44.0674 25.1436 46.8601C25.1436 49.679 27.4891 52.0153 30.3087 51.9978C33.1545 51.9824 35.4299 49.6658 35.408 46.8118C35.3838 43.9621 33.069 41.7048 30.2055 41.7399ZM30.2801 50.9821C27.9565 50.9821 26.1331 49.1306 26.1617 46.8008C26.188 44.5325 28.0201 42.7293 30.2933 42.7293C32.5533 42.7315 34.403 44.5566 34.4293 46.8118C34.4557 49.1108 32.595 50.9821 30.2801 50.9821Z" fill="#98ADCB"/>
<path d="M17.6835 13.9301C14.8223 13.9433 12.5667 16.2357 12.593 19.1051C12.6193 21.9043 14.8859 24.1594 17.6923 24.1792C20.514 24.1989 22.8618 21.8626 22.8574 19.0415C22.853 16.205 20.5403 13.9169 17.6835 13.9301ZM17.6265 23.1723C15.3686 23.1328 13.5497 21.2659 13.5738 19.0108C13.5957 16.7578 15.4432 14.9151 17.6945 14.8997C19.9918 14.8866 21.859 16.7666 21.8437 19.0788C21.8261 21.391 19.9501 23.2139 17.6265 23.1723Z" fill="#98ADCB"/>
<path d="M42.8681 -9.7106e-05C40.0288 -0.008872 37.7337 2.29673 37.7402 5.15076C37.749 8.01138 40.0398 10.2797 42.901 10.2599C45.7381 10.2402 48.0529 7.88195 47.9981 5.06521C47.9454 2.27479 45.6525 0.00867779 42.8681 -9.7106e-05ZM42.8132 9.26838C40.5532 9.24425 38.7189 7.40152 38.7123 5.14638C38.7057 2.85174 40.5817 1.00024 42.9032 1.01779C45.1763 1.03315 46.9887 2.85613 46.9931 5.12444C46.9931 7.43224 45.1193 9.29251 42.8132 9.26838Z" fill="#98ADCB"/>
<path d="M30.2342 13.9301C27.43 13.952 25.1634 16.2159 25.1437 19.0129C25.1239 21.8363 27.452 24.177 30.2803 24.1792C33.1239 24.1792 35.4169 21.8758 35.4081 19.0239C35.3971 16.1699 33.102 13.9082 30.2342 13.9301ZM30.2474 23.1722C27.9764 23.1569 26.1662 21.3339 26.1596 19.059C26.1552 16.749 28.0312 14.8756 30.3263 14.8997C32.5776 14.926 34.4207 16.7797 34.4295 19.0283C34.4404 21.3273 32.56 23.1876 30.2474 23.1722Z" fill="#98ADCB"/>
<path d="M5.17244 41.7399C2.32438 41.7289 0.00513002 44.0258 0.00293583 46.8601C-0.00145254 49.679 2.34633 52.0153 5.16805 51.9999C7.97002 51.9846 10.2344 49.7251 10.2608 46.9193C10.2871 44.0565 8.02488 41.7531 5.17244 41.7399ZM5.19218 50.9821C2.86635 51.004 1.00787 49.17 1.01007 46.8535C1.01446 44.5874 2.82685 42.76 5.09783 42.7293C7.39734 42.7008 9.29751 44.5764 9.29312 46.8688C9.28653 49.124 7.45658 50.9579 5.19218 50.9821Z" fill="#98ADCB"/>
<path d="M5.10374 -0.000117683C2.32151 0.0218195 0.0307801 2.30548 0.00225565 5.09151C-0.028463 7.91703 2.28421 10.2511 5.12568 10.2599C7.98251 10.2687 10.2689 7.98284 10.2623 5.12661C10.2535 2.27477 7.94301 -0.0198612 5.10374 -0.000117683ZM5.1915 9.26836C2.9293 9.29688 1.05985 7.49583 1.01158 5.23849C0.961115 2.91753 2.78229 1.03532 5.09496 1.01777C7.4186 1.00022 9.29683 2.84733 9.29024 5.14197C9.28366 7.39492 7.45152 9.23984 5.1915 9.26836Z" fill="#98ADCB"/>
<path d="M5.12588 27.8207C2.29538 27.8295 -0.0282646 30.1768 0.000259847 32.9957C0.0309784 35.7949 2.29977 38.0522 5.10174 38.0698C7.97174 38.0873 10.2581 35.8256 10.2603 32.965C10.2647 30.1131 7.96954 27.8119 5.12588 27.8207ZM5.12149 37.1001C2.86806 37.0848 1.02714 35.2421 1.01178 32.9869C0.994226 30.7164 2.79565 28.8649 5.05786 28.8276C7.37492 28.7881 9.27289 30.6243 9.29263 32.9211C9.31019 35.1982 7.39905 37.1133 5.12149 37.1001Z" fill="#98ADCB"/>
<path d="M30.221 27.8207C27.43 27.858 25.1568 30.1482 25.1436 32.9343C25.1304 35.7707 27.4409 38.072 30.2934 38.0698C33.1546 38.0654 35.4256 35.7795 35.408 32.9167C35.3905 30.0758 33.0558 27.7812 30.221 27.8207ZM30.278 37.0979C28.0224 37.0936 26.1815 35.2596 26.1595 33.0001C26.1398 30.6747 27.9741 28.8232 30.2934 28.8276C32.5622 28.832 34.3987 30.644 34.4294 32.9057C34.4601 35.185 32.56 37.1045 30.278 37.0979Z" fill="#98ADCB"/>
<path d="M5.14546 13.9301C2.29522 13.9301 -0.0174542 16.2378 9.92682e-05 19.0678C0.0154586 21.8933 2.37201 24.212 5.19154 24.1791C8.0001 24.1462 10.2448 21.8889 10.2601 19.0787C10.2777 16.2137 8.00888 13.9322 5.14546 13.9301ZM5.09939 23.1722C2.83499 23.1547 1.01381 21.3207 1.00942 19.0546C1.00504 16.7512 2.89642 14.8712 5.18935 14.8997C7.43619 14.9282 9.28809 16.7951 9.29247 19.0348C9.29467 21.3295 7.40986 23.192 5.09939 23.1722Z" fill="#98ADCB"/>
<path d="M42.8571 27.8207C40.0135 27.8185 37.7293 30.1241 37.7403 32.9803C37.7512 35.8409 40.042 38.0939 42.912 38.0698C45.7139 38.0456 47.9827 35.7751 48.0003 32.9803C48.0178 30.1636 45.6832 27.8207 42.8571 27.8207ZM42.8132 37.0979C40.5664 37.0716 38.7167 35.2047 38.7123 32.9628C38.7057 30.6659 40.5883 28.8079 42.9032 28.8276C45.1676 28.8451 46.9888 30.6769 46.9932 32.943C46.9932 35.242 45.0996 37.1265 42.8132 37.0979Z" fill="#98ADCB"/>
</g>
<defs>
<clipPath id="clip0_416_537">
<rect width="48" height="52" fill="white"/>
</clipPath>
</defs>
</svg>
