<svg width="146" height="45" viewBox="0 0 146 45" fill="none" xmlns="http://www.w3.org/2000/svg">
<g clip-path="url(#clip0_416_434)">
<path d="M5.92602 10.0912H0V34.4959H5.92602V10.0912Z" fill="#001C4B"/>
<path d="M12.2503 10.0903L11.0762 11.274V10.0903H12.2503Z" fill="#4A9BF0"/>
<path d="M15.7951 10.0903L11.0762 14.8478V13.3737L14.3329 10.0903H15.7951Z" fill="#4A9BF0"/>
<path d="M17.0709 10.9038V12.377L11.0762 18.4216V16.9437L17.0709 10.9038Z" fill="#4A9BF0"/>
<path d="M23.0779 9.89569L11.0762 21.9955V20.5185L20.8775 10.637C21.578 10.3048 22.3124 10.0571 23.0779 9.89664V9.89569Z" fill="#4A9BF0"/>
<path d="M26.7621 9.75426L21.3878 15.1724C20.8728 15.3101 20.3917 15.5199 19.9445 15.7989C19.0472 16.3599 18.3429 17.1278 17.8354 18.097C17.6499 18.4482 17.4983 18.8184 17.3844 19.2086L11.0752 25.5693V24.0914L25.3799 9.67357C25.8611 9.67737 26.3196 9.70395 26.7621 9.75331V9.75426Z" fill="#4A9BF0"/>
<path d="M11.0762 27.6652L17.0709 21.6205V23.0985L11.0762 29.1422V27.6652Z" fill="#4A9BF0"/>
<path d="M29.5654 10.5022L24.9189 15.1867C24.5404 15.0794 24.1196 15.0149 23.6582 14.9845L28.4986 10.1055C28.8734 10.2165 29.2293 10.3494 29.5663 10.5022H29.5654Z" fill="#4A9BF0"/>
<path d="M11.0762 31.2429L17.0709 25.1982V26.6723L11.0762 32.7161V31.2429Z" fill="#4A9BF0"/>
<path d="M31.678 11.946L27.073 16.5887C26.8574 16.3172 26.6107 16.0733 26.3311 15.8635L30.8834 11.274C31.1677 11.4799 31.4323 11.7049 31.679 11.946H31.678Z" fill="#4A9BF0"/>
<path d="M11.3945 34.4959L17.071 28.772V30.2462L12.8558 34.4959H11.3945Z" fill="#4A9BF0"/>
<path d="M33.167 14.0191L28.0695 19.1582C28.0055 18.7415 27.9066 18.3448 27.7852 17.9708L32.6293 13.087C32.8261 13.3775 33.0041 13.6897 33.167 14.0182V14.0191Z" fill="#4A9BF0"/>
<path d="M14.9395 34.4959L17.0711 32.3459V33.82L16.4007 34.4959H14.9395Z" fill="#4A9BF0"/>
<path d="M34.0224 16.7301L28.1943 22.6058V21.1317L33.7503 15.5303C33.8605 15.9157 33.9509 16.3125 34.0224 16.7292V16.7301Z" fill="#4A9BF0"/>
<path d="M34.2117 19.051V20.1122L28.1943 26.1797V24.7055L34.2079 18.6428C34.2117 18.7805 34.2117 18.9143 34.2117 19.051Z" fill="#4A9BF0"/>
<path d="M34.2117 22.2129V23.6861L28.1943 29.7535V28.2794L34.2117 22.2129Z" fill="#4A9BF0"/>
<path d="M34.2117 25.7867V27.2599L28.1943 33.3274V31.8532L34.2117 25.7867Z" fill="#4A9BF0"/>
<path d="M34.2119 29.3605V30.8337L30.5804 34.4959H29.1182L34.2119 29.3605Z" fill="#4A9BF0"/>
<path d="M34.2119 32.9344V34.4076L34.1253 34.4959H32.6631L34.2119 32.9344Z" fill="#4A9BF0"/>
<path d="M62.3414 19.0519V34.4959H56.3232V20.7776C56.3232 19.6737 56.1678 18.6817 55.8571 17.7999C55.5464 16.9219 55.0125 16.227 54.2631 15.723C53.5089 15.2152 52.4713 14.9636 51.1504 14.9636C49.9951 14.9636 48.9688 15.2427 48.0753 15.8037C47.178 16.3609 46.4738 17.1288 45.9663 18.1027C45.455 19.0766 45.2008 20.1948 45.2008 21.4658V34.4968H39.2061V10.0912H45.2008V13.7837C46.0265 12.657 47.0453 11.741 48.257 11.0348C49.8058 10.1301 51.5213 9.67927 53.4072 9.67927C55.2931 9.67927 56.9898 10.0609 58.3192 10.8288C59.6487 11.592 60.6523 12.6807 61.3302 14.0894C62.0044 15.5018 62.3414 17.1554 62.3414 19.0529V19.0519Z" fill="#001C4B"/>
<path d="M146 19.0519V34.4959H139.981V20.7776C139.981 19.6737 139.826 18.6817 139.515 17.7999C139.205 16.9219 138.671 16.227 137.921 15.723C137.167 15.2152 136.13 14.9636 134.809 14.9636C133.653 14.9636 132.627 15.2427 131.734 15.8037C130.836 16.3609 130.132 17.1288 129.624 18.1027C129.113 19.0766 128.859 20.1948 128.859 21.4658V34.4968H122.864V10.0912H128.859V13.7837C129.685 12.657 130.703 11.741 131.915 11.0348C133.464 10.1301 135.18 9.67927 137.065 9.67927C138.951 9.67927 140.648 10.0609 141.977 10.8288C143.307 11.592 144.311 12.6807 144.988 14.0894C145.663 15.5018 146 17.1554 146 19.0529V19.0519Z" fill="#001C4B"/>
<path d="M87.3738 32.8888C86.2949 32.4882 85.0407 32.2206 83.6096 32.0829L75.0849 31.277C73.8694 31.1546 73.0512 30.9372 72.6228 30.624C72.1982 30.3107 71.9864 29.9139 71.9864 29.4403C71.9864 28.9362 72.202 28.4967 72.6341 28.1303C72.6718 28.0962 72.7104 28.0658 72.7481 28.0392C74.3082 28.604 76.1074 28.8907 78.1412 28.8907C80.4517 28.8907 82.3639 28.4825 83.8864 27.669C85.4051 26.8593 86.6206 25.7487 87.533 24.3401C88.4425 22.9314 89.1044 21.3348 89.514 19.5598L91.703 10.0912H86.325L85.9804 13.142C85.8853 13.0196 85.7836 12.9019 85.6734 12.7794C84.8439 11.8634 83.7386 11.1145 82.3555 10.5383C80.9733 9.96593 79.4169 9.67927 77.6855 9.67927C75.5425 9.67927 73.6218 10.0912 71.9289 10.9199C70.2323 11.7448 68.9028 12.8896 67.9406 14.3561C66.9746 15.8179 66.4906 17.5056 66.4906 19.4231C66.4906 21.3405 66.9642 22.9428 67.9029 24.3752C68.3539 25.0624 68.8953 25.6699 69.5271 26.2082C69.334 26.3344 69.126 26.491 68.9057 26.6742C68.3454 27.1403 67.8455 27.7165 67.4133 28.4075C66.9812 29.0985 66.7655 29.8465 66.7655 30.66C66.7655 31.9927 67.2919 33.0654 68.3483 33.8789C66.6478 34.7455 65.7167 36.475 65.5802 36.9335C65.4399 37.3919 65.3721 37.9074 65.3721 38.4722C65.3721 40.4807 66.4586 42.0688 68.6326 43.2411C70.8066 44.4134 73.9118 45.0009 77.9566 45.0009C80.736 45.0009 83.0805 44.7067 84.9889 44.1267C86.8937 43.5429 88.3408 42.7181 89.3294 41.6445C90.318 40.5719 90.8104 39.2999 90.8104 37.8305C90.8104 36.513 90.5073 35.4593 89.9019 34.6686C89.2918 33.8817 88.4472 33.2865 87.372 32.8898L87.3738 32.8888ZM73.1152 16.7235C73.6077 15.9793 74.2893 15.4097 75.1527 15.0092C76.0199 14.6124 77.016 14.4131 78.1412 14.4131C79.2663 14.4131 80.3001 14.6077 81.1484 14.9968C82.0005 15.386 82.6634 15.9518 83.1332 16.6884C83.603 17.4212 83.8412 18.303 83.8412 19.3301C83.8412 20.3571 83.603 21.2541 83.1332 21.9841C82.6634 22.7093 82.0005 23.2665 81.1484 23.649C80.3001 24.0344 79.2889 24.2252 78.1186 24.2252C76.9482 24.2252 75.9559 24.0382 75.0962 23.6604C74.2404 23.2864 73.57 22.7368 73.0927 22.0069C72.6115 21.2779 72.3733 20.4036 72.3733 19.3766C72.3733 18.3495 72.6191 17.4639 73.1152 16.7225V16.7235ZM84.3967 39.5979C83.8591 39.9985 83.0673 40.3042 82.0259 40.5177C80.9846 40.7313 79.689 40.8386 78.1402 40.8386C76.0274 40.8386 74.3383 40.6288 73.0691 40.2083C71.7999 39.784 71.1644 39.1015 71.1644 38.1504C71.1644 37.7688 71.2096 37.4404 71.3009 37.1727C71.3922 36.9059 71.8112 35.9235 72.797 35.3853H72.8008L81.5834 36.195C82.572 36.2747 83.4203 36.4285 84.1359 36.6572C84.8477 36.886 85.2074 37.3976 85.2074 38.1959C85.2074 38.7342 84.9343 39.2002 84.3967 39.597V39.5979Z" fill="#001C4B"/>
<path d="M117.144 15.7572C116.11 13.8483 114.637 12.3589 112.732 11.2863C110.824 10.2137 108.563 9.67927 105.949 9.67927C103.336 9.67927 101.163 10.2099 99.2042 11.2749C97.242 12.3399 95.712 13.8217 94.6104 15.723C93.5079 17.6205 92.959 19.835 92.959 22.3628C92.959 24.8906 93.5004 27.0207 94.5878 28.9381C95.6744 30.8508 97.1893 32.344 99.1364 33.4166C101.079 34.4892 103.352 35.0274 105.949 35.0274C107.865 35.0274 109.57 34.7911 111.069 34.325C112.566 33.8589 113.838 33.2296 114.886 32.4389C115.935 31.652 116.75 30.7701 117.337 29.7972C117.92 28.8233 118.261 27.8266 118.352 26.7995H112.38C112.335 27.1963 112.187 27.594 111.933 27.9946C111.682 28.3914 111.311 28.7625 110.815 29.109C110.323 29.4526 109.686 29.7241 108.914 29.9225C108.138 30.1247 107.218 30.2243 106.157 30.2243C104.59 30.2243 103.264 29.9035 102.177 29.2694C101.09 28.6315 100.268 27.7155 99.7041 26.5129C99.3859 25.8332 99.159 25.0776 99.0262 24.249H118.602C118.632 24.0809 118.654 23.8095 118.669 23.4431C118.685 23.0767 118.692 22.7292 118.692 22.4084C118.692 19.8806 118.173 17.6623 117.143 15.7572H117.144ZM99.079 19.949C99.2268 19.2503 99.4462 18.6048 99.738 18.0211C100.326 16.8564 101.15 15.9631 102.223 15.3405C103.294 14.7225 104.56 14.4131 106.017 14.4131C107.475 14.4131 108.71 14.6997 109.665 15.2721C110.623 15.8483 111.339 16.5972 111.808 17.5246C112.197 18.2878 112.425 19.0975 112.489 19.949H99.079Z" fill="#001C4B"/>
<path d="M5.92602 0.0673951V5.40869C5.92602 5.44571 5.9006 5.47609 5.86953 5.47609H0.0564921C0.0254214 5.47609 0 5.44571 0 5.40869V0.0673951C0 0.0303753 0.0254214 0 0.0564921 0H5.86953C5.9006 0 5.92602 0.0303753 5.92602 0.0673951Z" fill="#001C4B"/>
</g>
<defs>
<clipPath id="clip0_416_434">
<rect width="146" height="45" fill="white"/>
</clipPath>
</defs>
</svg>
