<svg width="37" height="53" viewBox="0 0 37 53" fill="none" xmlns="http://www.w3.org/2000/svg">
<path d="M14.0153 41.5158C13.4861 40.8893 12.8975 40.2892 12.4887 39.5868C11.4698 37.836 10.0454 37.0512 8.02738 37.4485C7.25416 37.6002 7.15194 37.2276 7.15359 36.5467C7.17997 30.689 7.16843 24.8313 7.16843 18.9735C7.16843 13.1158 7.17008 7.25811 7.16843 1.4004C7.16843 1.15475 7.18492 0.905798 7.14865 0.663444C7.08929 0.266115 6.84364 0.027058 6.43312 0.00232799C5.98469 -0.0256994 5.69452 0.200168 5.61209 0.635416C5.56263 0.900852 5.57252 1.17948 5.57252 1.45316C5.57087 5.23025 5.57252 9.00735 5.57252 12.7844C5.57252 20.7508 5.56592 28.7155 5.58571 36.6802C5.58736 37.2771 5.467 37.4914 4.82567 37.4634C3.56939 37.4057 2.30816 37.4617 1.04857 37.4403C0.316566 37.4287 2.1788e-05 37.7618 2.1788e-05 38.4789C0.00661646 40.9701 0.00991379 43.4612 2.1788e-05 45.9523C-0.00327555 46.7256 0.367675 47.0207 1.11947 47.0058C2.40543 46.9795 3.69304 47.0174 4.98065 46.9877C5.44887 46.9778 5.5923 47.1213 5.58076 47.5878C5.55273 48.8194 5.57252 50.0509 5.57087 51.2825C5.57087 51.8744 5.54284 52.5355 6.35729 52.5536C7.17832 52.5718 7.17502 51.9271 7.17173 51.3237C7.16348 50.0641 7.18492 48.8045 7.16019 47.5466C7.15194 47.1114 7.29373 46.9745 7.72238 46.9894C8.51539 47.019 9.31005 46.9811 10.1031 47.0042C10.5581 47.0174 10.8779 46.8492 11.1549 46.4964C12.1012 45.2912 13.0591 44.0943 14.0302 42.9073C14.4275 42.4209 14.416 41.9906 14.0153 41.5158ZM12.187 42.66C11.539 43.4381 10.9027 44.2245 10.291 45.0307C10.0635 45.3324 9.8063 45.4149 9.45183 45.4099C8.24831 45.3951 7.04478 45.405 5.84125 45.405C4.63772 45.405 3.37814 45.3918 2.14824 45.4132C1.72947 45.4198 1.5745 45.3028 1.57945 44.8609C1.60088 43.1117 1.60582 41.3608 1.5778 39.6099C1.56955 39.1104 1.76904 39.0296 2.20264 39.0312C4.63772 39.0477 7.07281 39.0444 9.50789 39.0345C9.83597 39.0329 10.0684 39.1203 10.2762 39.3906C10.9093 40.2133 11.5506 41.0327 12.2249 41.8224C12.5101 42.1555 12.4293 42.3698 12.187 42.66Z" fill="#98ADCB"/>
<path d="M31.1436 25.4841C32.5928 25.4841 34.0419 25.4907 35.4911 25.4808C36.0879 25.4759 36.6435 25.5484 36.6353 26.3051C36.627 27.0058 36.1044 27.0932 35.534 27.0916C32.5532 27.085 29.574 27.085 26.5933 27.0916C26.0096 27.0916 25.5183 26.9663 25.5315 26.2672C25.5447 25.5616 26.064 25.4775 26.6328 25.4808C28.1364 25.4891 29.64 25.4841 31.1436 25.4841Z" fill="#98ADCB"/>
<path d="M31.1249 9.54646C32.6004 9.54646 34.0776 9.55306 35.5532 9.54316C36.1319 9.53987 36.6347 9.65362 36.6331 10.3527C36.6331 11.0517 36.1269 11.1605 35.5499 11.1589C32.5691 11.1523 29.59 11.1539 26.6092 11.1589C26.0338 11.1589 25.5277 11.0517 25.5293 10.3494C25.5293 9.64703 26.0371 9.53987 26.6125 9.54316C28.1161 9.55141 29.6196 9.54646 31.1232 9.54646H31.1249Z" fill="#98ADCB"/>
<path d="M31.0742 43.0276C29.5987 43.0276 28.1215 43.0227 26.6459 43.0309C26.0804 43.0342 25.5528 42.9568 25.5347 42.2544C25.5149 41.496 26.0656 41.4152 26.6657 41.4169C29.6184 41.4235 32.5712 41.4235 35.524 41.4169C36.0895 41.4169 36.6203 41.4911 36.6352 42.1934C36.6533 42.9469 36.106 43.0375 35.5042 43.0326C34.0286 43.0227 32.5514 43.0293 31.0759 43.0293L31.0742 43.0276Z" fill="#98ADCB"/>
<path d="M33.4576 17.5343C34.2242 17.5343 34.9892 17.5343 35.7558 17.5343C36.2686 17.5327 36.6197 17.7453 36.6379 18.2845C36.656 18.8681 36.2982 19.1121 35.7476 19.1121C34.216 19.1121 32.6827 19.1154 31.1511 19.1088C30.6384 19.1055 30.3053 18.8565 30.3086 18.3174C30.3119 17.7783 30.64 17.5393 31.1593 17.5376C31.926 17.536 32.6909 17.5376 33.4576 17.5376V17.5343Z" fill="#98ADCB"/>
<path d="M33.4493 35.0382C32.6827 35.0382 31.9177 35.0414 31.1511 35.0382C30.6301 35.0349 30.307 34.7876 30.3086 34.2501C30.3086 33.7093 30.6449 33.467 31.1577 33.4653C32.7173 33.4604 34.2769 33.4587 35.8366 33.4703C36.3642 33.4736 36.6593 33.767 36.6378 34.2979C36.6181 34.7892 36.3163 35.0332 35.83 35.0365C35.037 35.0414 34.2423 35.0365 33.4493 35.0382Z" fill="#98ADCB"/>
<path d="M33.4966 3.17123C32.7299 3.17123 31.9649 3.17123 31.1983 3.17123C30.6477 3.17123 30.2915 2.93382 30.3113 2.34524C30.3311 1.79953 30.6823 1.60005 31.195 1.60169C32.7266 1.60664 34.2582 1.60499 35.7899 1.60169C36.3174 1.60169 36.6356 1.85064 36.6389 2.38151C36.6422 2.91733 36.3125 3.16628 35.7932 3.16793C35.0265 3.17287 34.2615 3.16793 33.4949 3.16793L33.4966 3.17123Z" fill="#98ADCB"/>
<path d="M33.4694 50.971C32.7028 50.971 31.9378 50.9693 31.1711 50.971C30.6518 50.9726 30.3204 50.7435 30.3089 50.2043C30.2974 49.6669 30.6188 49.4064 31.1382 49.4047C32.6978 49.3981 34.2558 49.3998 35.8154 49.4047C36.3397 49.4064 36.6513 49.6784 36.6365 50.2109C36.6216 50.7484 36.2853 50.9726 35.766 50.971C34.9994 50.966 34.2344 50.971 33.4677 50.971H33.4694Z" fill="#98ADCB"/>
</svg>
