<svg width="51" height="51" viewBox="0 0 51 51" fill="none" xmlns="http://www.w3.org/2000/svg">
<path d="M25.4429 0C22.1642 0 19.5068 2.6574 19.5068 5.93604C19.5105 9.21282 22.1661 11.8684 25.4429 11.8721C28.7215 11.8721 31.3789 9.21467 31.3789 5.93604C31.3789 2.6574 28.7215 0 25.4429 0ZM25.4429 10.1771C23.1007 10.1771 21.2018 8.27818 21.2018 5.93604C21.2036 3.59574 23.1007 1.69866 25.4429 1.69495C27.785 1.69495 29.684 3.59389 29.684 5.93604C29.684 8.27818 27.785 10.1771 25.4429 10.1771Z" fill="#98ADCB"/>
<path d="M27.987 12.7214H22.8985C18.6852 12.727 15.2712 16.141 15.2656 20.3543V34.7725H18.6574V50.8856H20.3542V31.3789H18.6574V33.0757H16.9606V20.3543C16.9643 17.0775 19.6198 14.4219 22.8966 14.4182H27.9852C31.262 14.4219 33.9175 17.0775 33.9212 20.3543V33.0757H32.2244V31.3789H30.5276V50.8856H32.2244V34.7725H35.6162V20.3543C35.6106 16.141 32.1966 12.727 27.9833 12.7214H27.987Z" fill="#98ADCB"/>
<path d="M26.2925 34.7725H24.5957V50.8856H26.2925V34.7725Z" fill="#98ADCB"/>
<path d="M42.405 8.48035C39.5955 8.48035 37.3164 10.7594 37.3164 13.5689C37.3183 16.3784 39.5955 18.6556 42.405 18.6575C45.2144 18.6575 47.4935 16.3784 47.4935 13.5689C47.4935 10.7594 45.2144 8.48035 42.405 8.48035ZM42.405 16.9607C40.532 16.9607 39.0132 15.4419 39.0132 13.5689C39.0132 11.6959 40.532 10.1772 42.405 10.1772C44.2779 10.1772 45.7967 11.6959 45.7967 13.5689C45.7967 15.4419 44.2779 16.9607 42.405 16.9607Z" fill="#98ADCB"/>
<path d="M44.9492 19.5067H37.3164V21.2035H44.9492C47.2895 21.2054 49.1866 23.1025 49.1903 25.4446V36.4692H47.4935V34.7724H45.7967V50.8856H47.4935V38.1642H50.8853V25.4427C50.8816 22.166 48.226 19.5104 44.9492 19.5067Z" fill="#98ADCB"/>
<path d="M37.3174 34.7725V36.4674H33.9238V38.1642H37.3174V50.8856H39.0124V34.7725H37.3174Z" fill="#98ADCB"/>
<path d="M43.2534 38.1642H41.5566V50.8856H43.2534V38.1642Z" fill="#98ADCB"/>
<path d="M8.48114 8.48035C5.67167 8.48035 3.39258 10.7594 3.39258 13.5689C3.39443 16.3784 5.67167 18.6556 8.48114 18.6575C11.2906 18.6575 13.5697 16.3784 13.5697 13.5689C13.5697 10.7594 11.2906 8.48035 8.48114 8.48035ZM8.48114 16.9607C6.60816 16.9607 5.08938 15.4419 5.08938 13.5689C5.08938 11.6959 6.60816 10.1772 8.48114 10.1772C10.3541 10.1772 11.8729 11.6959 11.8729 13.5689C11.8729 15.4419 10.3541 16.9607 8.48114 16.9607Z" fill="#98ADCB"/>
<path d="M5.93604 19.5067C2.65925 19.5104 0.00370886 22.166 0 25.4427V38.1642H3.39176V50.8856H5.08856V34.7724H3.39176V36.4692H1.6968V25.4446C1.69866 23.1043 3.59574 21.2072 5.93789 21.2035H13.5707V19.5067H5.93604Z" fill="#98ADCB"/>
<path d="M13.569 36.4674V34.7725H11.874V50.8856H13.569V38.1642H16.9626V36.4674H13.569Z" fill="#98ADCB"/>
<path d="M9.32962 38.1642H7.63281V50.8856H9.32962V38.1642Z" fill="#98ADCB"/>
</svg>
